<svg xmlns="http://www.w3.org/2000/svg" viewBox="0 0 49.119531 47.997471" height="181.40776" width="185.64862"><defs><clipPath id="a" clipPathUnits="userSpaceOnUse"><path fill="#e7e8e9" stroke="#a7a9ac" stroke-width=".529167" stroke-linecap="square" stroke-dashoffset="6" d="M934.65692-1.4835175h26.19375V11.348775h-26.19375z"/></clipPath></defs><path d="M24.647691 47.468311l-19.2981703-9.23285-4.82036004-20.8616L13.816261.59324495l21.38926-.06408L48.590371 17.230311l-4.69887 20.8897z" fill="#fff" stroke="#892ca0" stroke-width="1.05833" stroke-linecap="round" stroke-linejoin="round"/><path d="M26.659251 22.918261h12.72207m-10.60539 2.645834h12.72207" fill="none" stroke="#3c6eb4" stroke-width="1.05833"/><g transform="matrix(1.15005 0 0 1.151 -1081.2492 24.622723)" stroke-width=".869167"><path d="M973.10356 3.3983398c-2.30839-3.74257021-1.79145-7.3525044-2.88299-12.510239-.59897-3.1855248-2.62142-5.8149598-5.25403-6.7776908-2.17189-.757647-6.68263-.759955-8.59472 0-2.63261.962731-4.65498 3.592166-5.25395 6.7776908-1.09155 5.1577346-.57458 8.76766879-2.88297 12.510239" fill="#ccc" fill-rule="evenodd" stroke="#000" stroke-width=".689901"/><ellipse cx="966.56354" cy="-4.1070371" rx="1.1158856" ry="1.1746163" fill="#e7e8e9"/><ellipse ry="1.1746163" rx="1.1158856" cy="-4.1070371" cx="955.28723" fill="#e7e8e9"/><path d="M957.22536-4.7530759l-4.14698 1.11118m4.61683-.465141l-4.1701 2.4076065m4.52248-1.6441059L953.81897.8850826m4.40481-3.230195l-2.16115 3.7432439M964.9547-4.7530759l4.14698 1.11118m-4.61683-.4651411l4.1701 2.4076065m-4.52248-1.6441059l4.22862 4.22861894m-4.40481-3.23019494l2.16115 3.7432439" stroke-width=".459935" stroke="#a7a9ac" fill="none"/><ellipse cx="961.04285" cy="-4.9292688" rx="3.5825801" ry="3.4063873" fill="#fff" stroke="#60605b" stroke-width=".689901" stroke-linecap="square" stroke-dashoffset="6"/><ellipse transform="scale(-1 1)" cx="-966.52734" cy="-7.8406329" rx="1.7252614" ry="1.7690334" stroke="#892ca0" stroke-width=".689901" stroke-linecap="square"/><path d="M968.07427-11.544209c-.34474-.448317-.89334-.733231-1.45836-.757402-.53344-.02282-1.07281.185834-1.45201.561706" fill="none" stroke="#000" stroke-width=".689901" stroke-linecap="square"/><path d="M961.04287-5.5165765l.0882 1.7619245s1.40955 1.2627126 2.23178-.029365c0 0-.0882-.7341339-.14686-.9690571m-2.18942-.7635019l-.0882 1.7619245s-1.40955 1.2627126-2.23178-.029365c0 0 .0882-.7341339.14687-.9690571" stroke-width=".689902" fill="none" stroke="#000"/><path d="M962.57174-5.5436767c-.1202-.3110186-.1202-.9330691-.48062-.9330691-.36047 0-.69372-.2332673-1.04826-.2332673-.35456 0-.68781.2332673-1.04828.2332673-.36046 0-.36046.6220505-.48061.9330691-.1202.3110253 1.52889 1.3218472 1.52889 1.3218472s1.64903-1.0108219 1.52888-1.3218472z" fill="gray" stroke="#000" stroke-width=".689901" stroke-linecap="square"/><ellipse ry="1.7690334" rx="1.7252614" cy="-7.8406329" cx="955.36047" stroke="#892ca0" stroke-width=".689901" stroke-linecap="square"/><ellipse cx="954.78467" cy="-8.3384542" rx=".8483994" ry=".88143349" fill="#fff"/><path d="M953.81353-11.544209c.34474-.448315.89333-.73323 1.45835-.757402.53344-.02282 1.07281.185833 1.45201.561706" fill="none" stroke="#000" stroke-width=".689901" stroke-linecap="square"/><ellipse ry=".88143349" rx=".8483994" cy="-8.3384542" cx="965.94666" fill="#fff"/></g><path d="M10.887871 28.47679h32.92765" fill="none" stroke="#3c6eb4" stroke-width="1.05833"/><g transform="translate(-772.77361 22.759845) scale(.83048)" clip-path="url(#a)" stroke-width="1.20412"><path d="M958.31594 13.737399c-.26199-1.782196-.38924-3.720848-.8727-6.0017375-.53058-2.8174518-2.32212-5.1430676-4.65415-5.9945597-1.92393-.6701043-5.91966-.6721461-7.61343 0-2.33204.8514921-4.1235 3.1771079-4.65409 5.9945597-.48346 2.2808895-.61071 4.2195415-.87269 6.0017375" fill="#ccc" fill-rule="evenodd" stroke="#000" stroke-width=".955767"/><ellipse cx="954.20367" cy="12.16224" rx=".98848081" ry="1.0388949" fill="#e7e8e9"/><ellipse ry="1.0388949" rx=".98848081" cy="12.16224" cx="944.21478" fill="#e7e8e9"/><path d="M956.41893-5.9814347l-4.67056 1.2514712m5.19973-.5238671l-4.6966 2.711577m5.09347-1.8516812l-4.7625 4.76249998m4.96093-3.63802078l-2.434 4.21584432" transform="matrix(.78652 0 0 .7853 193.68501 16.288101)" stroke="#a7a9ac" stroke-width=".810747" fill="none"/><path d="M956.41893-5.9814347l-4.67056 1.2514712m5.19973-.5238671l-4.6966 2.711577m5.09347-1.8516812l-4.7625 4.76249998m4.96093-3.63802078l-2.434 4.21584432" transform="matrix(-.78652 0 0 .7853 1705.0252 16.288101)" stroke="#a7a9ac" stroke-width=".810747" fill="none"/><ellipse cx="949.31329" cy="11.435012" rx="3.1735437" ry="3.0127952" fill="#fff" stroke="#60605b" stroke-width=".955767" stroke-linecap="square" stroke-dashoffset="6"/><ellipse transform="scale(-1 1)" cx="-954.17163" cy="8.8600426" rx="1.528282" ry="1.5646298" stroke="#892ca0" stroke-width=".955767" stroke-linecap="square"/><path d="M955.54199 5.5843938c-.30575-.3965787-.79155-.6484892-1.29185-.6698876-.4724-.020205-.95006.1642901-1.28623.4968037" fill="none" stroke="#000" stroke-width=".955767" stroke-linecap="square"/><path d="M962.30591-5.7829972l.0993 1.9843749s1.58751 1.4221355 2.51355-.033073c0 0-.0993-.8268214-.16541-1.0914047m-2.46584-.8598972l-.0993 1.9843749s-1.58751 1.4221355-2.51355-.033073c0 0 .0993-.8268214.16541-1.0914047" transform="matrix(.78652 0 0 .7853 192.4364 15.456986)" fill="none" stroke="#000" stroke-width="1.21612"/><path d="M950.66771 10.891591c-.10648-.275082-.10648-.825257-.42575-.825257-.31931 0-.61451-.2063147-.92858-.2063147-.31407 0-.60928.2063147-.92858.2063147-.31932 0-.31932.550175-.42575.825257-.10647.275088 1.35433 1.169114 1.35433 1.169114s1.46076-.894026 1.35433-1.169114z" fill="gray" stroke="#000" stroke-width=".955767" stroke-linecap="square"/><ellipse ry="1.5646298" rx="1.528282" cy="8.8600426" cx="944.27972" stroke="#892ca0" stroke-width=".955767" stroke-linecap="square"/><ellipse cx="943.76965" cy="8.4197426" rx=".75153452" ry=".77958798" fill="#fff"/><path d="M942.90945 5.5843938c.30575-.3965787.79155-.6484892 1.29185-.6698876.4724-.020205.95006.1642901 1.28623.4968037" fill="none" stroke="#000" stroke-width=".955767" stroke-linecap="square"/><ellipse ry=".77958798" rx=".75153452" cy="8.5291576" cx="953.76178" fill="#fff"/></g><path d="M6.1253707 32.710124H25.956811m-10.41003 3.966469h27.50208" fill="none" stroke="#3c6eb4" stroke-width="1.05833"/><g transform="translate(-936.54351 25.067351)"><path d="M977.46866 11.110796c-.23262-1.5824091-.34561-3.3037374-.77487-5.3289381-.4711-2.5016132-2.06181-4.566525-4.13242-5.32256411-1.70825-.59498494-5.25606-.59679785-6.75995 0-2.07062.75603911-3.66125 2.82095091-4.13236 5.32256411-.42927 2.0252007-.54225 3.746529-.77486 5.3289381" fill="#ccc" fill-rule="evenodd" stroke="#000" stroke-width=".79375"/><ellipse ry=".92243373" rx=".87767112" cy="9.7122078" cx="973.81744" fill="#e7e8e9"/><ellipse cx="964.9483" cy="9.7122078" rx=".87767112" ry=".92243373" fill="#e7e8e9"/><path d="M955.74614-3.9599306l-4.67056 1.2514712m5.19973-.5238671l-4.6966 2.71157695" transform="matrix(.69835 0 0 .69727 299.02348 11.966021)" stroke="#a7a9ac" stroke-width=".758321" fill="none"/><path d="M956.41893-5.9814347l-4.67056 1.2514712m5.19973-.5238671l-4.6966 2.711577" transform="matrix(-.69835 0 0 .69727 1640.4712 13.375562)" stroke="#a7a9ac" stroke-width=".758321" fill="none"/><ellipse ry="2.6750579" rx="2.8177862" cy="9.0665035" cx="969.47528" fill="#fff" stroke="#60605b" stroke-width=".79375" stroke-linecap="square" stroke-dashoffset="6"/><ellipse ry="1.3892332" rx="1.3569601" cy="6.7801905" cx="-973.789" transform="scale(-1 1)" stroke="#892ca0" stroke-width=".79375" stroke-linecap="square"/><path d="M975.00567 3.8717489c-.27147-.3521218-.70281-.575793-1.14703-.5947926-.41945-.01794-.84356.1458731-1.14204.4411116" fill="none" stroke="#000" stroke-width=".79375" stroke-linecap="square"/><path d="M962.30591-5.7829972l.0993 1.9843749s1.58751 1.4221355 2.51355-.033073c0 0-.0993-.8268214-.16541-1.0914047m-2.46584-.8598972l-.0993 1.9843749s-1.58751 1.4221355-2.51355-.033073c0 0 .0993-.8268214.16541-1.0914047" transform="matrix(.69835 0 0 .69727 297.44499 12.637616)" fill="none" stroke="#000" stroke-width="1.13748"/><path d="M970.6778 8.5840058c-.0945-.2442451-.0945-.7327449-.37802-.7327449-.28351 0-.54562-.1831865-.82448-.1831865-.27887 0-.54098.1831865-.82449.1831865-.28352 0-.28352.4884998-.37802.7327449-.0945.2442506 1.20251 1.0380563 1.20251 1.0380563s1.297-.7938057 1.2025-1.0380563z" fill="gray" stroke="#000" stroke-width=".79375" stroke-linecap="square"/><ellipse cx="965.00598" cy="6.7801905" rx="1.3569601" ry="1.3892332" stroke="#892ca0" stroke-width=".79375" stroke-linecap="square"/><ellipse ry=".69219536" rx=".66728675" cy="6.3892479" cx="964.5531" fill="#fff"/><path d="M963.78925 3.8717489c.27148-.3521208.70281-.5757916 1.14703-.5947926.41945-.017942.84357.1458717 1.14205.4411116" fill="none" stroke="#000" stroke-width=".79375" stroke-linecap="square"/><ellipse cx="973.4754" cy="6.4801154" rx=".66728675" ry=".69219536" fill="#fff"/></g><path d="M13.430091 39.322428h12.72207m-5.31375 2.645835h10.477" fill="none" stroke="#3c6eb4" stroke-width="1.05833"/></svg>