<svg xmlns="http://www.w3.org/2000/svg" viewBox="0 0 217.6757 47.997471" height="181.40776" width="822.7113"><defs><clipPath id="a" clipPathUnits="userSpaceOnUse"><path fill="#e7e8e9" stroke="#a7a9ac" stroke-width=".529167" stroke-linecap="square" stroke-dashoffset="6" d="M934.65692-1.4835175h26.19375v12.832292h-26.19375z"/></clipPath></defs><path d="M24.647691 47.468311l-19.2981703-9.23285-4.82036004-20.8616L13.816261.59324495l21.38926-.06408L48.590371 17.230311l-4.69887 20.8897z" fill="#fff" stroke="#892ca0" stroke-width="1.05833" stroke-linecap="round" stroke-linejoin="round"/><g style="line-height:22.5552px" aria-label="podman" font-weight="400" font-size="37.592" font-family="sans-serif" letter-spacing="0" word-spacing="0" fill="#892ca0" stroke-width=".264583"><path style="-inkscape-font-specification:Montserrat" d="M74.1408 13.99968c-3.1202 0-5.526 1.27812-6.9921 3.60883v-3.45846h-4.3231V41.4418h4.3231V30.69051c1.4661 2.3307 3.8719 3.60882 7.0673 3.60882 5.7139 0 9.4731-4.09752 9.4731-10.07464 0-6.0899-3.8719-10.22501-9.5483-10.22501zm-.9022 16.61564c-3.5713 0-6.0899-2.66903-6.0899-6.541 0-3.75919 2.5186-6.46581 6.0899-6.46581 3.5712 0 6.0899 2.74421 6.0899 6.46581 0 3.83438-2.5187 6.541-6.0899 6.541zM96.7594 13.99968c-6.2027 0-10.4506 4.09752-10.4506 10.14983 0 6.01471 4.2479 10.14982 10.4506 10.14982 6.1651 0 10.413-4.13511 10.413-10.14982 0-6.05231-4.2479-10.14983-10.413-10.14983zm0 3.7216c3.5712 0 6.0899 2.63144 6.0899 6.46582 0 3.87197-2.5187 6.50341-6.0899 6.50341-3.6088 0-6.1275-2.63144-6.1275-6.50341 0-3.83438 2.5187-6.46582 6.1275-6.46582zM126.4194 6.25574v11.35277c-1.466-2.33071-3.8719-3.64642-7.1048-3.64642-5.6388 0-9.5108 4.09752-9.5108 10.11223 0 6.0899 3.8344 10.2626 9.5859 10.2626 3.1954 0 5.6012-1.27812 7.0297-3.60882v3.42086h4.3231V6.25574zm-6.1275 24.47236c-3.6464 0-6.1274-2.70662-6.165-6.50341.038-3.83438 2.5562-6.57859 6.165-6.57859 3.6089 0 6.1275 2.70662 6.1275 6.57859 0 3.79679-2.5186 6.50341-6.1275 6.50341z" font-family="Montserrat"/><path d="M163.3964 13.99968c-3.6464 0-6.3154 1.46608-7.5936 4.81177-.9398-3.04495-3.3832-4.81177-6.9545-4.81177-3.3081 0-5.8643 1.20294-7.2552 4.02234v-3.87197h-4.2855v19.99891h4.2855v-9.88668c0-3.49605 2.1051-6.12749 5.5636-6.24026 2.9322 0 4.699 1.842 4.699 4.88695v11.23999h4.3231v-9.88668c0-3.49605 2.0675-6.12749 5.4884-6.24026 2.9321 0 4.7366 1.842 4.7366 4.88695v11.23999h4.323V21.70603c0-4.77418-2.7442-7.70635-7.3304-7.70635zM192.7546 34.14896l-.038-13.11959c-.038-4.39826-2.9322-7.02969-8.0823-7.02969-3.7968 0-5.8268.86461-8.6086 2.51866l1.7669 3.00736c1.9923-1.35332 3.9847-2.02997 5.9019-2.02997 3.1577 0 4.7742 1.50368 4.7742 4.02234v.60147h-6.0523c-4.8118.0376-7.556 2.36829-7.556 6.01471 0 3.53365 2.7066 6.20267 7.0297 6.20267 2.8946 0 5.1877-.86461 6.6162-2.63143v2.44347zm-9.9619-3.2329c-2.4059 0-3.872-1.16535-3.872-2.96977 0-1.91719 1.3157-2.66903 4.1351-2.66903h5.4133v1.84201c-.2256 2.18033-2.5939 3.79679-5.6764 3.79679zM210.2325 13.99968c-3.3833 0-5.9396 1.20294-7.3681 3.98474v-3.83437h-4.323v19.99891h4.323V23.51044c.3008-3.12013 2.3683-5.41324 5.6764-5.45083 3.0074 0 4.8118 1.842 4.8118 4.84936v11.23999h4.3231V21.70603c0-4.77418-2.7818-7.70635-7.4432-7.70635z" fill="#60605b"/></g><path d="M26.659251 22.918261h12.72207M28.775931 25.564095h12.72207" fill="none" stroke="#3c6eb4" stroke-width="1.05833"/><g transform="matrix(1.15005 0 0 1.151 -1081.2492 24.622723)" stroke-width=".869167"><path d="M973.10356 3.3983398c-2.30839-3.74257021-1.79145-7.3525044-2.88299-12.510239-.59897-3.1855248-2.62142-5.8149598-5.25403-6.7776908-2.17189-.757647-6.68263-.759955-8.59472 0-2.63261.962731-4.65498 3.592166-5.25395 6.7776908-1.09155 5.1577346-.57458 8.76766879-2.88297 12.510239" fill="#ccc" fill-rule="evenodd" stroke="#000" stroke-width=".689901"/><ellipse cx="966.56354" cy="-4.1070371" rx="1.1158856" ry="1.1746163" fill="#e7e8e9"/><ellipse ry="1.1746163" rx="1.1158856" cy="-4.1070371" cx="955.28723" fill="#e7e8e9"/><g stroke="#a7a9ac" stroke-width=".518003" fill="none"><path d="M957.22536196-4.75307588l-4.1469855 1.11118002M957.69521147-4.10703693l-4.1701064 2.40760648M958.04759194-3.34353632L953.818973.8850826M958.22377774-2.34511238l-2.16114614 3.74324392" stroke-width=".45993486370000003"/></g><g stroke="#a7a9ac" stroke-width=".518003" fill="none"><path d="M964.95469804-4.75307594l4.1469855 1.11118002M964.48484853-4.107037l4.1701064 2.40760649M964.13246806-3.34353638L968.361087.88508254M963.95628226-2.34511244l2.16114614 3.74324392" stroke-width=".45993486370000003"/></g><ellipse cx="961.04285" cy="-4.9292688" rx="3.5825801" ry="3.4063873" fill="#fff" stroke="#60605b" stroke-width=".689901" stroke-linecap="square" stroke-dashoffset="6"/><ellipse transform="scale(-1 1)" cx="-966.52734" cy="-7.8406329" rx="1.7252614" ry="1.7690334" stroke="#892ca0" stroke-width=".689901" stroke-linecap="square"/><path d="M968.07427-11.544209c-.34474-.448317-.89334-.733231-1.45836-.757402-.53344-.02282-1.07281.185834-1.45201.561706" fill="none" stroke="#000" stroke-width=".689901" stroke-linecap="square"/><g fill="none" stroke="#000" stroke-width=".777004"><path d="M961.04286556-5.5165765l.08816837 1.76192447s1.40954853 1.26271268 2.2317785-.02936548c0 0-.08816836-.73413388-.14686737-.96905713M961.02652822-5.5165765l-.08816837 1.76192447s-1.40954853 1.26271268-2.2317785-.02936548c0 0 .08816836-.73413388.14686736-.96905713" stroke-width=".6899018516000001"/></g><path d="M962.57174-5.5436767c-.1202-.3110186-.1202-.9330691-.48062-.9330691-.36047 0-.69372-.2332673-1.04826-.2332673-.35456 0-.68781.2332673-1.04828.2332673-.36046 0-.36046.6220505-.48061.9330691-.1202.3110253 1.52889 1.3218472 1.52889 1.3218472s1.64903-1.0108219 1.52888-1.3218472z" fill="gray" stroke="#000" stroke-width=".689901" stroke-linecap="square"/><ellipse ry="1.7690334" rx="1.7252614" cy="-7.8406329" cx="955.36047" stroke="#892ca0" stroke-width=".689901" stroke-linecap="square"/><ellipse cx="954.78467" cy="-8.3384542" rx=".8483994" ry=".88143349" fill="#fff"/><path d="M953.81353-11.544209c.34474-.448315.89333-.73323 1.45835-.757402.53344-.02282 1.07281.185833 1.45201.561706" fill="none" stroke="#000" stroke-width=".689901" stroke-linecap="square"/><ellipse ry=".88143349" rx=".8483994" cy="-8.3384542" cx="965.94666" fill="#fff"/></g><path d="M10.887871 28.47679h32.92765" fill="none" stroke="#3c6eb4" stroke-width="1.05833"/><g transform="matrix(.83048 0 0 .83048 -772.77361 22.759845)" clip-path="url(#a)" stroke-width="1.20412"><path d="M958.31594 13.737399c-.26199-1.782196-.38924-3.720848-.8727-6.0017375-.53058-2.8174518-2.32212-5.1430676-4.65415-5.9945597-1.92393-.6701043-5.91966-.6721461-7.61343 0-2.33204.8514921-4.1235 3.1771079-4.65409 5.9945597-.48346 2.2808895-.61071 4.2195415-.87269 6.0017375" fill="#ccc" fill-rule="evenodd" stroke="#000" stroke-width=".955767"/><ellipse cx="954.20367" cy="12.16224" rx=".98848081" ry="1.0388949" fill="#e7e8e9"/><ellipse ry="1.0388949" rx=".98848081" cy="12.16224" cx="944.21478" fill="#e7e8e9"/><g stroke="#a7a9ac" stroke-width=".810747" fill="none"><path d="M956.41893-5.9814347l-4.67056 1.2514712M956.9481-5.2538306l-4.6966 2.711577M957.34497-4.3939348l-4.7625 4.76249998M957.5434-3.2694556l-2.434 4.21584432" transform="matrix(.78652 0 0 .7853 193.68501 16.288101)"/></g><g stroke="#a7a9ac" stroke-width=".810747" fill="none"><path d="M956.41893-5.9814347l-4.67056 1.2514712M956.9481-5.2538306l-4.6966 2.711577M957.34497-4.3939348l-4.7625 4.76249998M957.5434-3.2694556l-2.434 4.21584432" transform="matrix(-.78652 0 0 .7853 1705.0252 16.288101)"/></g><ellipse cx="949.31329" cy="11.435012" rx="3.1735437" ry="3.0127952" fill="#fff" stroke="#60605b" stroke-width=".955767" stroke-linecap="square" stroke-dashoffset="6"/><ellipse transform="scale(-1 1)" cx="-954.17163" cy="8.8600426" rx="1.528282" ry="1.5646298" stroke="#892ca0" stroke-width=".955767" stroke-linecap="square"/><path d="M955.54199 5.5843938c-.30575-.3965787-.79155-.6484892-1.29185-.6698876-.4724-.020205-.95006.1642901-1.28623.4968037" fill="none" stroke="#000" stroke-width=".955767" stroke-linecap="square"/><g fill="none" stroke="#000" stroke-width="1.21612"><path d="M962.30591-5.7829972l.0993 1.9843749s1.58751 1.4221355 2.51355-.033073c0 0-.0993-.8268214-.16541-1.0914047M962.28751-5.7829972l-.0993 1.9843749s-1.58751 1.4221355-2.51355-.033073c0 0 .0993-.8268214.16541-1.0914047" transform="matrix(.78652 0 0 .7853 192.4364 15.45698603)"/></g><path d="M950.66771 10.891591c-.10648-.275082-.10648-.825257-.42575-.825257-.31931 0-.61451-.2063147-.92858-.2063147-.31407 0-.60928.2063147-.92858.2063147-.31932 0-.31932.550175-.42575.825257-.10647.275088 1.35433 1.169114 1.35433 1.169114s1.46076-.894026 1.35433-1.169114z" fill="gray" stroke="#000" stroke-width=".955767" stroke-linecap="square"/><ellipse ry="1.5646298" rx="1.528282" cy="8.8600426" cx="944.27972" stroke="#892ca0" stroke-width=".955767" stroke-linecap="square"/><ellipse cx="943.76965" cy="8.4197426" rx=".75153452" ry=".77958798" fill="#fff"/><path d="M942.90945 5.5843938c.30575-.3965787.79155-.6484892 1.29185-.6698876.4724-.020205.95006.1642901 1.28623.4968037" fill="none" stroke="#000" stroke-width=".955767" stroke-linecap="square"/><ellipse ry=".77958798" rx=".75153452" cy="8.5291576" cx="953.76178" fill="#fff"/></g><path d="M6.1253707 32.710124H25.956811M15.546781 36.676593h27.50208" fill="none" stroke="#3c6eb4" stroke-width="1.05833"/><g transform="translate(-936.54351 25.067351)"><path d="M977.46866 11.110796c-.23262-1.5824091-.34561-3.3037374-.77487-5.3289381-.4711-2.5016132-2.06181-4.566525-4.13242-5.32256411-1.70825-.59498494-5.25606-.59679785-6.75995 0-2.07062.75603911-3.66125 2.82095091-4.13236 5.32256411-.42927 2.0252007-.54225 3.746529-.77486 5.3289381" fill="#ccc" fill-rule="evenodd" stroke="#000" stroke-width=".79375"/><ellipse ry=".92243373" rx=".87767112" cy="9.7122078" cx="973.81744" fill="#e7e8e9"/><ellipse cx="964.9483" cy="9.7122078" rx=".87767112" ry=".92243373" fill="#e7e8e9"/><g stroke="#a7a9ac" stroke-width=".758321" fill="none"><path d="M955.74614-3.9599306l-4.67056 1.2514712M956.27531-3.2323265l-4.6966 2.71157695" transform="matrix(.69835 0 0 .69727 299.02348 11.966021)"/></g><g stroke="#a7a9ac" stroke-width=".758321" fill="none"><path d="M956.41893-5.9814347l-4.67056 1.2514712M956.9481-5.2538306l-4.6966 2.711577" transform="matrix(-.69835 0 0 .69727 1640.4712 13.375562)"/></g><ellipse ry="2.6750579" rx="2.8177862" cy="9.0665035" cx="969.47528" fill="#fff" stroke="#60605b" stroke-width=".79375" stroke-linecap="square" stroke-dashoffset="6"/><ellipse ry="1.3892332" rx="1.3569601" cy="6.7801905" cx="-973.789" transform="scale(-1 1)" stroke="#892ca0" stroke-width=".79375" stroke-linecap="square"/><path d="M975.00567 3.8717489c-.27147-.3521218-.70281-.575793-1.14703-.5947926-.41945-.01794-.84356.1458731-1.14204.4411116" fill="none" stroke="#000" stroke-width=".79375" stroke-linecap="square"/><g fill="none" stroke="#000" stroke-width="1.13748"><path d="M962.30591-5.7829972l.0993 1.9843749s1.58751 1.4221355 2.51355-.033073c0 0-.0993-.8268214-.16541-1.0914047M962.28751-5.7829972l-.0993 1.9843749s-1.58751 1.4221355-2.51355-.033073c0 0 .0993-.8268214.16541-1.0914047" transform="matrix(.69835 0 0 .69727 297.44499 12.6376155)"/></g><path d="M970.6778 8.5840058c-.0945-.2442451-.0945-.7327449-.37802-.7327449-.28351 0-.54562-.1831865-.82448-.1831865-.27887 0-.54098.1831865-.82449.1831865-.28352 0-.28352.4884998-.37802.7327449-.0945.2442506 1.20251 1.0380563 1.20251 1.0380563s1.297-.7938057 1.2025-1.0380563z" fill="gray" stroke="#000" stroke-width=".79375" stroke-linecap="square"/><ellipse cx="965.00598" cy="6.7801905" rx="1.3569601" ry="1.3892332" stroke="#892ca0" stroke-width=".79375" stroke-linecap="square"/><ellipse ry=".69219536" rx=".66728675" cy="6.3892479" cx="964.5531" fill="#fff"/><path d="M963.78925 3.8717489c.27148-.3521208.70281-.5757916 1.14703-.5947926.41945-.017942.84357.1458717 1.14205.4411116" fill="none" stroke="#000" stroke-width=".79375" stroke-linecap="square"/><ellipse cx="973.4754" cy="6.4801154" rx=".66728675" ry=".69219536" fill="#fff"/></g><path d="M13.430091 39.322428h12.72207M20.838411 41.968263h10.477" fill="none" stroke="#3c6eb4" stroke-width="1.05833"/></svg>