<svg xmlns="http://www.w3.org/2000/svg" viewBox="0 0 154.85009 35.18606" height="132.98668" width="585.26019"><g style="line-height:22.5552px" aria-label="podman" font-weight="400" font-size="37.592" font-family="sans-serif" letter-spacing="0" word-spacing="0" fill="#892ca0" stroke-width=".264583"><path style="-inkscape-font-specification:Montserrat" d="M11.3152 7.74394c-3.1202 0-5.526 1.27812-6.9921 3.60883V7.89431H0v27.29175h4.3231V24.43477c1.4661 2.3307 3.8719 3.60882 7.0673 3.60882 5.7139 0 9.4731-4.09752 9.4731-10.07464 0-6.0899-3.8719-10.22501-9.5483-10.22501zm-.9022 16.61564c-3.5713 0-6.0899-2.66903-6.0899-6.541 0-3.75919 2.5186-6.46581 6.0899-6.46581 3.5712 0 6.0899 2.74421 6.0899 6.46581 0 3.83438-2.5187 6.541-6.0899 6.541zM33.9338 7.74394c-6.2027 0-10.4506 4.09752-10.4506 10.14983 0 6.01471 4.2479 10.14982 10.4506 10.14982 6.1651 0 10.413-4.13511 10.413-10.14982 0-6.05231-4.2479-10.14983-10.413-10.14983zm0 3.7216c3.5712 0 6.0899 2.63144 6.0899 6.46582 0 3.87197-2.5187 6.50341-6.0899 6.50341-3.6088 0-6.1275-2.63144-6.1275-6.50341 0-3.83438 2.5187-6.46582 6.1275-6.46582zM63.5938 0v11.35277c-1.466-2.33071-3.8719-3.64642-7.1048-3.64642-5.6388 0-9.5108 4.09752-9.5108 10.11223 0 6.0899 3.8344 10.2626 9.5859 10.2626 3.1954 0 5.6012-1.27812 7.0297-3.60882v3.42086h4.3231V0zm-6.1275 24.47236c-3.6464 0-6.1274-2.70662-6.165-6.50341.038-3.83438 2.5562-6.57859 6.165-6.57859 3.6089 0 6.1275 2.70662 6.1275 6.57859 0 3.79679-2.5186 6.50341-6.1275 6.50341z" font-family="Montserrat"/><path d="M100.5708 7.74394c-3.6464 0-6.3154 1.46608-7.5936 4.81177-.9398-3.04495-3.3832-4.81177-6.9545-4.81177-3.3081 0-5.8643 1.20294-7.2552 4.02234V7.89431H74.482v19.99891h4.2855v-9.88668c0-3.49605 2.1051-6.12749 5.5636-6.24026 2.9322 0 4.699 1.842 4.699 4.88695v11.23999h4.3231v-9.88668c0-3.49605 2.0675-6.12749 5.4884-6.24026 2.9321 0 4.7366 1.842 4.7366 4.88695v11.23999h4.323V15.45029c0-4.77418-2.7442-7.70635-7.3304-7.70635zm29.3582 20.14928l-.038-13.11959c-.038-4.39826-2.9322-7.02969-8.0823-7.02969-3.7968 0-5.8268.86461-8.6086 2.51866l1.7669 3.00736c1.9923-1.35332 3.9847-2.02997 5.9019-2.02997 3.1577 0 4.7742 1.50368 4.7742 4.02234v.60147h-6.0523c-4.8118.0376-7.556 2.36829-7.556 6.01471 0 3.53365 2.7066 6.20267 7.0297 6.20267 2.8946 0 5.1877-.86461 6.6162-2.63143v2.44347zm-9.9619-3.2329c-2.4059 0-3.872-1.16535-3.872-2.96977 0-1.91719 1.3157-2.66903 4.1351-2.66903h5.4133v1.84201c-.2256 2.18033-2.5939 3.79679-5.6764 3.79679zm27.4398-16.91638c-3.3833 0-5.9396 1.20294-7.3681 3.98474V7.89431h-4.323v19.99891h4.323V17.2547c.3008-3.12013 2.3683-5.41324 5.6764-5.45083 3.0074 0 4.8118 1.842 4.8118 4.84936v11.23999h4.3231V15.45029c0-4.77418-2.7818-7.70635-7.4432-7.70635z" fill="#60605b"/></g></svg>